{"title":"Vozvrashcheniye aka The Return[x264][AC3]Multi_Sub.mkv","uid":5232654,"size":1790471670,"categoryP":"video","categoryS":"movies","magnet":"?xt=urn:btih:f8e0f624620178ba94febfdaf9bf785cfca1f6f1&amp;dn=Vozvrashcheniye+aka+The+Return%5Bx264%5D%5BAC3%5DMulti_Sub.mkv&amp;tr=udp%3A%2F%2Ftracker.openbittorrent.com%3A80&amp;tr=udp%3A%2F%2Fopen.demonii.com%3A1337&amp;tr=udp%3A%2F%2Ftracker.coppersurfer.tk%3A6969&amp;tr=udp%3A%2F%2Fexodus.desync.com%3A6969","seeders":1,"leechers":0,"uploader":"Zen_Bud","files":-1,"time":1261356141,"description":"General\nComplete name                    : Vozvrashcheniye aka The Return.mkv\nFormat                           : Matroska\nFile size                        : 1.67 GiB\nDuration                         : 1h 45mn\nOverall bit rate                 : 2 256 Kbps\n\n\nVideo\nID                               : 1\nFormat                           : AVC\n\nCodec ID                         : V_MPEG4/ISO/AVC\nDuration                         : 1h 45mn\nBit rate                         : 2 083 Kbps\nNominal bit rate                 : 2 114 Kbps\nWidth                            : 720 pixels\nHeight                           : 576 pixels\nDisplay aspect ratio             : 16:9\nFrame rate                       : 25.000 fps\nStandard                         : PAL\nResolution                       : 8 bits\nColorimetry                      : 4:2:0\nScan type                        : Progressive\nBits/(Pixel*Frame)               : 0.201\nStream size                      : 1.54 GiB (92%)\nWriting library                  : x264 core 79\n\n\nAudio\nID                               : 2\nFormat                           : AC-3\nFormat/Info                      : Audio Coding 3\nCodec ID                         : A_AC3\nDuration                         : 1h 45mn\nBit rate mode                    : Constant\nBit rate                         : 128 Kbps\nChannel(s)                       : 2 channels\nChannel positions                : L R\nSampling rate                    : 48.0 KHz\nStream size                      : 96.9 MiB (6%)\nLanguage                         : Russia\n\n\n\nText #1\nLanguage                         : Swedish\n\nText #2\nLanguage                         : Norwegian\n\nText #3\nLanguage                         : Danish\n\nText #4\nLanguage                         : Finnish\n\nText #5\nLanguage                         : English\n\n\n","torrent":{"xt":"urn:btih:f8e0f624620178ba94febfdaf9bf785cfca1f6f1","amp;dn":"Vozvrashcheniye+aka+The+Return%5Bx264%5D%5BAC3%5DMulti_Sub.mkv","amp;tr":["udp%3A%2F%2Ftracker.openbittorrent.com%3A80","udp%3A%2F%2Fopen.demonii.com%3A1337","udp%3A%2F%2Ftracker.coppersurfer.tk%3A6969","udp%3A%2F%2Fexodus.desync.com%3A6969"],"infoHash":"f8e0f624620178ba94febfdaf9bf785cfca1f6f1","infoHashBuffer":{"type":"Buffer","data":[248,224,246,36,98,1,120,186,148,254,191,218,249,191,120,92,252,161,246,241]},"announce":[],"urlList":[]}}